Coordinates
version=1
nRows=12
nColumns=34
inDegrees=yes

Units are S.I. units (second, meters, Newtons, ...)
If the header above contains a line with 'inDegrees', this indicates whether rotational values are in degrees (yes) or radians (no).

endheader
time	pelvis_tilt	pelvis_list	pelvis_rotation	pelvis_tx	pelvis_ty	pelvis_tz	hip_flexion_r	hip_adduction_r	hip_rotation_r	knee_angle_r	ankle_angle_r	subtalar_angle_r	mtp_angle_r	hip_flexion_l	hip_adduction_l	hip_rotation_l	knee_angle_l	ankle_angle_l	subtalar_angle_l	mtp_angle_l	lumbar_extension	lumbar_bending	lumbar_rotation	arm_flex_r	arm_add_r	arm_rot_r	elbow_flex_r	pro_sup_r	arm_flex_l	arm_add_l	arm_rot_l	elbow_flex_l	pro_sup_l
      8.70000000	     -9.29860595	      0.67841247	     -3.28626828	      0.50579292	      0.85289156	     -0.06606494	     18.34938683	     -7.92401860	     -6.17908323	     15.02711540	     10.45790938	     -4.72453979	      0.00000000	     18.11691901	    -12.42249068	    -15.08876409	     16.85266993	      7.19820799	     -8.64373676	      0.00000000	     -1.70124334	     -1.12562652	      4.15754973	     62.02030090	     10.17784947	     63.11071935	    129.13519972	     97.99221688	     71.65814974	      6.51474596	     66.04885219	    119.13337050	     72.74264664
      8.71666670	     -9.90337201	      0.76908273	     -3.25390165	      0.50205932	      0.84747897	     -0.06642073	     20.81337619	     -8.20820746	     -5.74643450	     17.89750005	     11.48983530	     -5.34856243	      0.00000000	     20.60598608	    -12.87803966	    -15.04587705	     19.86117545	      7.99031255	     -9.41586396	      0.00000000	     -2.21879996	     -1.23455316	      3.95441406	     62.58341450	     10.17274422	     63.62146685	    128.31400260	     98.28924801	     72.18517730	      6.72166257	     66.41007530	    119.34803792	     72.81849050
      8.73333330	    -10.55728712	      0.84611725	     -3.14239521	      0.49874433	      0.84118439	     -0.06609871	     23.41372714	     -8.52322921	     -5.40304861	     20.89603001	     12.62240956	     -5.85666883	      0.00000000	     23.26977044	    -13.41481044	    -15.04765365	     23.11233291	      8.98590973	     -9.95330589	      0.00000000	     -2.83563458	     -1.29262291	      3.96346464	     63.04558731	      9.95817252	     63.73367322	    127.72860777	     98.55909712	     72.82573069	      6.85120505	     66.83421745	    119.60231849	     72.88971653
      8.75000000	    -11.17255063	      0.92093816	     -3.00043701	      0.49465094	      0.83697817	     -0.06768471	     26.03044259	     -8.90180716	     -5.14362689	     24.00831506	     13.84029818	     -6.18104519	      0.00000000	     25.92157258	    -13.93500465	    -14.95945093	     26.31315073	     10.27872982	    -10.04993463	      0.00000000	     -3.54045986	     -1.32772739	      3.94980797	     63.45367664	      9.70662653	     63.55219426	    126.71749824	     98.75724560	     73.52399081	      6.91344715	     67.36438429	    119.55612104	     72.92483029
      8.76666670	    -11.71679821	      1.04275806	     -2.83519846	      0.48921073	      0.83028792	     -0.06878914	     28.87130541	     -9.39720140	     -4.86887737	     27.55393902	     15.24282662	     -6.31826909	      0.00000000	     28.72813462	    -14.46998832	    -14.99084253	     29.91643246	     11.69866176	    -10.17448569	      0.00000000	     -4.39763615	     -1.43694698	      3.82581027	     63.89569202	      9.62358295	     63.59432604	    125.66633898	     98.87939692	     74.19196778	      6.75390698	     67.94231330	    119.42223628	     72.92610108
      8.78333330	    -12.21776725	      1.10788731	     -2.62096225	      0.48586512	      0.82336644	     -0.06926811	     31.59889480	     -9.91236443	     -4.70542495	     31.05143566	     16.55849274	     -6.43358093	      0.00000000	     31.42232999	    -15.05551644	    -14.88765488	     33.43477560	     13.26300914	     -9.90070167	      0.00000000	     -5.26530203	     -1.44639028	      3.69194776	     64.33226260	      9.52868575	     63.46368803	    125.17317388	     98.91004216	     74.72542531	      6.62973453	     68.26839207	    119.28457201	     72.90551886
      8.80000000	    -12.66923161	      1.14503216	     -2.41924040	      0.48131457	      0.81583249	     -0.06652517	     34.21754972	    -10.30969705	     -4.53121799	     34.47829084	     17.99132432	     -6.24545385	      0.00000000	     34.00643029	    -15.80463727	    -14.84073703	     36.81752345	     14.75312745	     -9.29221600	      0.00000000	     -6.17582382	     -1.52410589	      3.79640878	     64.80375832	      9.46731614	     63.45716297	    124.55126768	     98.88672173	     75.15453340	      6.39280067	     68.57961140	    119.36284145	     72.88973277
      8.81666670	    -12.95856477	      1.14163221	     -2.18102853	      0.47832493	      0.80783175	     -0.06469067	     36.73733162	    -10.64252258	     -4.26615387	     38.23372737	     19.46689129	     -6.26623716	      0.00000000	     36.33094646	    -16.64210182	    -14.81115031	     40.06162913	     16.41851626	     -8.42574309	      0.00000000	     -7.25383218	     -1.66575339	      3.77153741	     65.63170949	      9.75909433	     63.87939369	    123.83994424	     98.86046610	     75.67113897	      5.96717374	     68.60802342	    119.36641052	     72.87345766
      8.83333330	    -13.23237863	      1.09780284	     -2.08303419	      0.47349795	      0.79827215	     -0.06461978	     39.34461207	    -10.91498442	     -4.06394804	     42.10911611	     21.01502747	     -6.04322338	      0.00000000	     38.76165072	    -17.61435214	    -14.65218172	     43.49778408	     18.18095918	     -7.51111272	      0.00000000	     -8.37090550	     -1.83368681	      3.55174069	     66.53174782	      9.90657610	     64.20537891	    123.35621530	     98.82260003	     76.27302938	      5.29333911	     68.47270317	    119.35419859	     72.86812738
      8.85000000	    -13.51513683	      1.06557613	     -1.93236932	      0.46737460	      0.78864265	     -0.06402238	     42.09511289	    -11.23156021	     -3.88557348	     46.05415437	     22.68230067	     -5.62258228	      0.00000000	     41.47323954	    -18.56642239	    -14.38003314	     47.06985310	     19.65950633	     -6.91045488	      0.00000000	     -9.68779301	     -1.97461445	      3.35462155	     67.52260782	      9.91434856	     64.17024740	    123.10398030	     98.78074508	     76.95091028	      4.76837424	     68.04610725	    119.58970791	     72.90494904
      8.86666670	    -13.86586950	      1.05149641	     -1.80779963	      0.46146314	      0.78136784	     -0.06521662	     44.70864413	    -11.59341533	     -3.73463125	     49.60885102	     23.94851888	     -5.24980312	      0.00000000	     44.14050347	    -19.32556558	    -13.92355952	     50.28479503	     20.78732611	     -6.41821921	      0.00000000	    -11.15596982	     -2.11698725	      3.07003124	     68.60596787	      9.96782138	     64.40905342	    123.18786989	     98.78956889	     77.76705084	      4.84902344	     68.07039082	    119.80638800	     72.99644880
      8.88333330	    -13.77818361	      0.95595952	     -1.75244791	      0.45643656	      0.77126978	     -0.06160582	     46.81602520	    -11.60438191	     -3.19251432	     52.98604495	     25.36992614	     -5.34918572	      0.00000000	     46.33406371	    -20.17283304	    -13.24581458	     53.43519594	     21.52518240	     -6.45982315	      0.00000000	    -13.09156144	     -2.37999177	      3.05838148	     69.73843184	     10.13672627	     64.47466711	    122.94321182	     98.80675899	     79.08740008	      4.77699067	     67.72085203	    119.64415561	     73.03542386
